<svg width="38" height="57" viewBox="0 0 38 57" fill="none" xmlns="http://www.w3.org/2000/svg">
<g id="figma_logo" clip-path="url(#clip0_252_2252)">
<path id="Vector" d="M19 28.4889C19 26.0253 19.9786 23.6627 21.7207 21.9207C23.4627 20.1786 25.8253 19.2 28.2889 19.2C30.7525 19.2 33.1151 20.1786 34.8571 21.9207C36.5991 23.6627 37.5778 26.0253 37.5778 28.4889C37.5778 30.9525 36.5991 33.3151 34.8571 35.0571C33.1151 36.7991 30.7525 37.7778 28.2889 37.7778C25.8253 37.7778 23.4627 36.7991 21.7207 35.0571C19.9786 33.3151 19 30.9525 19 28.4889Z" fill="#1ABCFE"/>
<path id="Vector_2" d="M0.422226 47.0667C0.422226 44.6031 1.40087 42.2404 3.14288 40.4984C4.88488 38.7564 7.24755 37.7778 9.71111 37.7778H19V47.0667C19 49.5302 18.0214 51.8929 16.2794 53.6349C14.5373 55.3769 12.1747 56.3556 9.71111 56.3556C7.24755 56.3556 4.88488 55.3769 3.14288 53.6349C1.40087 51.8929 0.422226 49.5302 0.422226 47.0667H0.422226Z" fill="#0ACF83"/>
<path id="Vector_3" d="M19 0.622223V19.2H28.2889C30.7525 19.2 33.1151 18.2214 34.8571 16.4793C36.5991 14.7373 37.5778 12.3747 37.5778 9.91111C37.5778 7.44755 36.5991 5.08488 34.8571 3.34288C33.1151 1.60087 30.7525 0.622223 28.2889 0.622223L19 0.622223Z" fill="#FF7262"/>
<path id="Vector_4" d="M0.422226 9.91111C0.422226 12.3747 1.40087 14.7373 3.14288 16.4793C4.88488 18.2214 7.24755 19.2 9.71111 19.2H19V0.622223H9.71111C7.24755 0.622223 4.88488 1.60087 3.14288 3.34288C1.40087 5.08488 0.422226 7.44755 0.422226 9.91111H0.422226Z" fill="#F24E1E"/>
<path id="Vector_5" d="M0.422226 28.4889C0.422226 30.9525 1.40087 33.3151 3.14288 35.0571C4.88488 36.7991 7.24755 37.7778 9.71111 37.7778H19V19.2H9.71111C7.24755 19.2 4.88488 20.1786 3.14288 21.9207C1.40087 23.6627 0.422226 26.0253 0.422226 28.4889H0.422226Z" fill="#A259FF"/>
</g>
<defs>
<clipPath id="clip0_252_2252">
<rect width="37.1556" height="55.7333" fill="white" transform="translate(0.422226 0.622223)"/>
</clipPath>
</defs>
</svg>
