<svg width="28" height="28" viewBox="0 0 28 28" fill="none" xmlns="http://www.w3.org/2000/svg">
<g id="Phone">
<path id="Vector" d="M25.4099 5.46328L22.0817 2.13828C21.6755 1.73203 21.1317 1.50391 20.5567 1.50391C19.9817 1.50391 19.438 1.72891 19.0317 2.13828L15.4474 5.71641C15.0411 6.12266 14.813 6.66953 14.813 7.24453C14.813 7.82266 15.038 8.36328 15.4474 8.77266L18.2474 11.5758C17.6095 13.062 16.693 14.4123 15.5474 15.5539C14.4005 16.707 13.0599 17.6164 11.5724 18.2602L8.77236 15.457C8.36611 15.0508 7.82236 14.8227 7.24736 14.8227C6.96375 14.8216 6.68278 14.8772 6.42091 14.9861C6.15905 15.095 5.92156 15.2551 5.72236 15.457L2.13486 19.0352C1.72861 19.4414 1.50049 19.9883 1.50049 20.5633C1.50049 21.1414 1.72549 21.682 2.13486 22.0914L5.45986 25.4164C6.15361 26.1102 7.10986 26.507 8.09111 26.507C8.29424 26.507 8.49111 26.4914 8.69111 26.457C12.8286 25.7758 16.9349 23.5727 20.2505 20.2602C23.563 16.9414 25.763 12.8352 26.4505 8.69453C26.6474 7.51953 26.2536 6.31016 25.4099 5.46328ZM24.2349 8.32266C23.6255 12.007 21.6442 15.682 18.6599 18.6664C15.6755 21.6508 12.0036 23.632 8.31924 24.2414C7.85674 24.3195 7.38174 24.1633 7.04424 23.8289L3.77861 20.5633L7.24111 17.0977L10.9849 20.8477L11.013 20.8758L11.688 20.6258C13.7346 19.8733 15.5932 18.6848 17.1348 17.1426C18.6765 15.6004 19.8643 13.7414 20.6161 11.6945L20.8661 11.0195L17.0911 7.24766L20.5536 3.78203L23.8192 7.04766C24.1567 7.38516 24.313 7.86016 24.2349 8.32266Z" fill="#286F6C"/>
</g>
</svg>
